<svg width="14" height="14" viewBox="0 0 14 14" fill="none" xmlns="http://www.w3.org/2000/svg">
<path d="M9.84686 6.8296L10.3231 7.409V7.409L9.84686 6.8296ZM3.91908 6.83716L4.41784 6.27703L3.91908 6.83716ZM7.91165 11.8947L7.4789 11.2822L7.91165 11.8947ZM6.61747 12.809L7.05022 13.4216L6.61747 12.809ZM1.75069 4.90636L1.25193 5.46649L1.75069 4.90636ZM12.1937 4.90061L11.7175 4.32121L12.1937 4.90061ZM9.66667 4.41667C10.0809 4.41667 10.4167 4.08088 10.4167 3.66667C10.4167 3.25245 10.0809 2.91667 9.66667 2.91667V4.41667ZM4.33333 2.91667C3.91912 2.91667 3.58333 3.25245 3.58333 3.66667C3.58333 4.08088 3.91912 4.41667 4.33333 4.41667L4.33333 2.91667ZM3.31497 1.75H10.7228V0.25H3.31497V1.75ZM7.4789 11.2822L6.18473 12.1965L7.05022 13.4216L8.3444 12.5073L7.4789 11.2822ZM5.75 12.0089V9.22401H4.25V12.0089H5.75ZM4.41784 6.27703L2.24944 4.34623L1.25193 5.46649L3.42033 7.39729L4.41784 6.27703ZM11.7175 4.32121L9.37063 6.2502L10.3231 7.409L12.67 5.48001L11.7175 4.32121ZM7.91667 9.30138V10.4545H9.41667V9.30138H7.91667ZM9.37063 6.2502C8.45227 7.00503 7.91667 8.12013 7.91667 9.30138H9.41667C9.41667 8.57776 9.74444 7.88461 10.3231 7.409L9.37063 6.2502ZM5.75 9.22401C5.75 8.09848 5.26348 7.03001 4.41784 6.27703L3.42033 7.39729C3.95221 7.87089 4.25 8.53431 4.25 9.22401H5.75ZM8.3444 12.5073C9.01312 12.0349 9.41667 11.2734 9.41667 10.4545H7.91667C7.91667 10.7751 7.7589 11.0844 7.4789 11.2822L8.3444 12.5073ZM6.18473 12.1965C6.09243 12.2617 5.98447 12.2656 5.88883 12.2183C5.79442 12.1716 5.75 12.0961 5.75 12.0089H4.25C4.25 13.4658 5.91331 14.2248 7.05022 13.4216L6.18473 12.1965ZM0.25 3.24871C0.25 4.09696 0.616715 4.90087 1.25193 5.46649L2.24944 4.34623C1.92798 4.05999 1.75 3.66112 1.75 3.24871H0.25ZM12.25 3.212C12.25 3.63384 12.059 4.04053 11.7175 4.32121L12.67 5.48001C13.3512 4.92011 13.75 4.09148 13.75 3.212H12.25ZM10.7228 1.75C11.5869 1.75 12.25 2.42494 12.25 3.212H13.75C13.75 1.55575 12.374 0.25 10.7228 0.25V1.75ZM3.31497 0.25C1.64292 0.25 0.25 1.57219 0.25 3.24871H1.75C1.75 2.44138 2.42998 1.75 3.31497 1.75V0.25ZM9.66667 2.91667L4.33333 2.91667L4.33333 4.41667L9.66667 4.41667V2.91667Z" fill="#E4EEFE"/>
</svg>
