<svg width="20" height="20" viewBox="0 0 20 20" fill="none" xmlns="http://www.w3.org/2000/svg">
<g clip-path="url(#clip0_398_9)">
<path d="M7.5 0.347329C7.62202 0.495595 7.69677 0.677044 7.71459 0.868233C7.73242 1.05942 7.6925 1.25156 7.6 1.41983C6.87732 2.74667 6.49992 4.23395 6.5025 5.74483C6.5025 10.7711 10.6 14.8411 15.65 14.8411C16.3088 14.8411 16.95 14.7723 17.5663 14.6411C17.7552 14.6002 17.9519 14.6158 18.132 14.6861C18.3121 14.7563 18.4675 14.8781 18.5788 15.0361C18.6962 15.2004 18.7561 15.3989 18.7491 15.6008C18.7421 15.8027 18.6686 15.9966 18.54 16.1523C17.5596 17.3566 16.3228 18.3269 14.9198 18.9926C13.5168 19.6582 11.9829 20.0023 10.43 19.9998C4.6675 19.9998 0 15.3573 0 9.63733C0 5.33233 2.6425 1.63983 6.405 0.0748295C6.59242 -0.00438065 6.80049 -0.0206382 6.99794 0.0284991C7.19539 0.0776364 7.37156 0.189515 7.5 0.347329Z" fill="#1967FF"/>
<path d="M13.4925 3.935C13.5104 3.88087 13.545 3.83376 13.5912 3.80037C13.6374 3.76699 13.693 3.74902 13.75 3.74902C13.807 3.74902 13.8626 3.76699 13.9088 3.80037C13.9551 3.83376 13.9896 3.88087 14.0075 3.935L14.4913 5.3875C14.7075 6.035 15.215 6.5425 15.8625 6.75875L17.315 7.2425C17.3691 7.26042 17.4162 7.29495 17.4496 7.34118C17.483 7.3874 17.501 7.44298 17.501 7.5C17.501 7.55702 17.483 7.61259 17.4496 7.65882C17.4162 7.70504 17.3691 7.73957 17.315 7.7575L15.8625 8.24125C15.5432 8.34764 15.253 8.52695 15.015 8.76497C14.777 9.00298 14.5977 9.29315 14.4913 9.6125L14.0075 11.065C13.9896 11.1191 13.9551 11.1662 13.9088 11.1996C13.8626 11.233 13.807 11.251 13.75 11.251C13.693 11.251 13.6374 11.233 13.5912 11.1996C13.545 11.1662 13.5104 11.1191 13.4925 11.065L13.0088 9.6125C12.9024 9.29315 12.7231 9.00298 12.485 8.76497C12.247 8.52695 11.9569 8.34764 11.6375 8.24125L10.185 7.7575C10.1309 7.73957 10.0838 7.70504 10.0504 7.65882C10.017 7.61259 9.99902 7.55702 9.99902 7.5C9.99902 7.44298 10.017 7.3874 10.0504 7.34118C10.0838 7.29495 10.1309 7.26042 10.185 7.2425L11.6375 6.75875C11.9569 6.65235 12.247 6.47304 12.485 6.23503C12.7231 5.99702 12.9024 5.70684 13.0088 5.3875L13.4925 3.935ZM17.3288 0.123749C17.3411 0.0881573 17.3642 0.0572943 17.3949 0.0354514C17.4256 0.0136085 17.4623 0.00187111 17.5 0.00187111C17.5377 0.00187111 17.5744 0.0136085 17.6051 0.0354514C17.6358 0.0572943 17.6589 0.0881573 17.6713 0.123749L17.9938 1.09125C18.1375 1.52375 18.4763 1.8625 18.9088 2.00625L19.8763 2.32875C19.9118 2.34109 19.9427 2.36421 19.9646 2.3949C19.9864 2.42559 19.9981 2.46233 19.9981 2.5C19.9981 2.53767 19.9864 2.5744 19.9646 2.6051C19.9427 2.63579 19.9118 2.65891 19.8763 2.67125L18.9088 2.99375C18.6956 3.06465 18.5019 3.18427 18.3431 3.3431C18.1843 3.50193 18.0647 3.69561 17.9938 3.90875L17.6713 4.87625C17.6589 4.91184 17.6358 4.9427 17.6051 4.96455C17.5744 4.98639 17.5377 4.99813 17.5 4.99813C17.4623 4.99813 17.4256 4.98639 17.3949 4.96455C17.3642 4.9427 17.3411 4.91184 17.3288 4.87625L17.0063 3.90875C16.9354 3.69561 16.8157 3.50193 16.6569 3.3431C16.4981 3.18427 16.3044 3.06465 16.0913 2.99375L15.1238 2.67125C15.0882 2.65891 15.0573 2.63579 15.0355 2.6051C15.0136 2.5744 15.0019 2.53767 15.0019 2.5C15.0019 2.46233 15.0136 2.42559 15.0355 2.3949C15.0573 2.36421 15.0882 2.34109 15.1238 2.32875L16.0913 2.00625C16.5238 1.8625 16.8625 1.52375 17.0063 1.09125L17.3288 0.124999V0.123749Z" fill="#F3D42F"/>
</g>
<defs>
<clipPath id="clip0_398_9">
<rect width="20" height="20" fill="white"/>
</clipPath>
</defs>
</svg>
