<svg width="1338" height="964" viewBox="0 0 1338 964" fill="none" xmlns="http://www.w3.org/2000/svg">
<path d="M2.17203 29.353L1.72848 30.0261L2.05656 30.7625L1.38342 30.3189L0.647068 30.647L1.09062 29.9739L0.762542 29.2375L1.43568 29.6811L2.17203 29.353Z" fill="white"/>
<path d="M193.581 86.7625L193.138 87.4356L193.466 88.172L192.793 87.7284L192.056 88.0565L192.5 87.3834L192.172 86.647L192.845 87.0906L193.581 86.7625Z" fill="white"/>
<path d="M76.5815 152.762L76.1379 153.436L76.466 154.172L75.7928 153.728L75.0565 154.056L75.5 153.383L75.172 152.647L75.8451 153.091L76.5815 152.762Z" fill="white"/>
<path d="M94.5815 47.7625L94.1379 48.4356L94.466 49.172L93.7928 48.7284L93.0565 49.0565L93.5 48.3834L93.172 47.647L93.8451 48.0906L94.5815 47.7625Z" fill="white"/>
<path d="M39.5815 72.7625L39.1379 73.4356L39.466 74.172L38.7928 73.7284L38.0565 74.0565L38.5 73.3834L38.172 72.647L38.8451 73.0906L39.5815 72.7625Z" fill="white"/>
<path d="M387.581 135.762L387.138 136.436L387.466 137.172L386.793 136.728L386.056 137.056L386.5 136.383L386.172 135.647L386.845 136.091L387.581 135.762Z" fill="white"/>
<path d="M212.581 31.7625L212.138 32.4356L212.466 33.172L211.793 32.7284L211.056 33.0565L211.5 32.3834L211.172 31.647L211.845 32.0906L212.581 31.7625Z" fill="white"/>
<path d="M636.582 89.7625L636.138 90.4356L636.466 91.172L635.793 90.7284L635.057 91.0565L635.5 90.3834L635.172 89.647L635.845 90.0906L636.582 89.7625Z" fill="white"/>
<path d="M404.581 253.762L404.138 254.436L404.466 255.172L403.793 254.728L403.056 255.056L403.5 254.383L403.172 253.647L403.845 254.091L404.581 253.762Z" fill="white"/>
<path d="M211.581 174.762L211.138 175.436L211.466 176.172L210.793 175.728L210.056 176.056L210.5 175.383L210.172 174.647L210.845 175.091L211.581 174.762Z" fill="white"/>
<path d="M203.581 329.762L203.138 330.436L203.466 331.172L202.793 330.728L202.056 331.056L202.5 330.383L202.172 329.647L202.845 330.091L203.581 329.762Z" fill="white"/>
<path d="M801.582 315.762L801.138 316.436L801.466 317.172L800.793 316.728L800.057 317.056L800.5 316.383L800.172 315.647L800.845 316.091L801.582 315.762Z" fill="white"/>
<path d="M994.581 118.762L994.138 119.436L994.466 120.172L993.793 119.728L993.056 120.056L993.5 119.383L993.172 118.647L993.845 119.091L994.581 118.762Z" fill="white"/>
<path d="M1269.58 294.762L1269.14 295.436L1269.47 296.172L1268.79 295.728L1268.06 296.056L1268.5 295.383L1268.17 294.647L1268.85 295.091L1269.58 294.762Z" fill="white"/>
<path d="M1143.58 608.762L1143.14 609.436L1143.47 610.172L1142.79 609.728L1142.06 610.056L1142.5 609.383L1142.17 608.647L1142.85 609.091L1143.58 608.762Z" fill="white"/>
<path d="M1272.58 808.762L1272.14 809.436L1272.47 810.172L1271.79 809.728L1271.06 810.056L1271.5 809.383L1271.17 808.647L1271.85 809.091L1272.58 808.762Z" fill="white"/>
<path d="M963.582 843.762L963.138 844.436L963.466 845.172L962.793 844.728L962.057 845.056L962.5 844.383L962.172 843.647L962.845 844.091L963.582 843.762Z" fill="white"/>
<path d="M607.582 805.762L607.138 806.436L607.466 807.172L606.793 806.728L606.057 807.056L606.5 806.383L606.172 805.647L606.845 806.091L607.582 805.762Z" fill="white"/>
<path d="M783.582 426.762L783.138 427.436L783.466 428.172L782.793 427.728L782.057 428.056L782.5 427.383L782.172 426.647L782.845 427.091L783.582 426.762Z" fill="white"/>
<path d="M511.582 347.762L511.138 348.436L511.466 349.172L510.793 348.728L510.057 349.056L510.5 348.383L510.172 347.647L510.845 348.091L511.582 347.762Z" fill="white"/>
<path d="M302.581 725.762L302.138 726.436L302.466 727.172L301.793 726.728L301.056 727.056L301.5 726.383L301.172 725.647L301.845 726.091L302.581 725.762Z" fill="white"/>
<path d="M59.5815 611.762L59.1379 612.436L59.466 613.172L58.7928 612.728L58.0565 613.056L58.5 612.383L58.172 611.647L58.8451 612.091L59.5815 611.762Z" fill="white"/>
<path d="M62.5815 264.762L62.1379 265.436L62.466 266.172L61.7928 265.728L61.0565 266.056L61.5 265.383L61.172 264.647L61.8451 265.091L62.5815 264.762Z" fill="white"/>
<path d="M384.581 297.762L384.138 298.436L384.466 299.172L383.793 298.728L383.056 299.056L383.5 298.383L383.172 297.647L383.845 298.091L384.581 297.762Z" fill="white"/>
<path d="M951.582 300.762L951.138 301.436L951.466 302.172L950.793 301.728L950.057 302.056L950.5 301.383L950.172 300.647L950.845 301.091L951.582 300.762Z" fill="white"/>
<path d="M842.582 535.762L842.138 536.436L842.466 537.172L841.793 536.728L841.057 537.056L841.5 536.383L841.172 535.647L841.845 536.091L842.582 535.762Z" fill="white"/>
<path d="M709.582 658.762L709.138 659.436L709.466 660.172L708.793 659.728L708.057 660.056L708.5 659.383L708.172 658.647L708.845 659.091L709.582 658.762Z" fill="white"/>
<path d="M525.582 380.762L525.138 381.436L525.466 382.172L524.793 381.728L524.057 382.056L524.5 381.383L524.172 380.647L524.845 381.091L525.582 380.762Z" fill="white"/>
<path d="M742.582 199.762L742.138 200.436L742.466 201.172L741.793 200.728L741.057 201.056L741.5 200.383L741.172 199.647L741.845 200.091L742.582 199.762Z" fill="white"/>
<path d="M97.5815 714.762L97.1379 715.436L97.466 716.172L96.7928 715.728L96.0565 716.056L96.5 715.383L96.172 714.647L96.8451 715.091L97.5815 714.762Z" fill="white"/>
<path d="M73.5815 412.762L73.1379 413.436L73.466 414.172L72.7928 413.728L72.0565 414.056L72.5 413.383L72.172 412.647L72.8451 413.091L73.5815 412.762Z" fill="white"/>
<path d="M624.582 401.762L624.138 402.436L624.466 403.172L623.793 402.728L623.057 403.056L623.5 402.383L623.172 401.647L623.845 402.091L624.582 401.762Z" fill="white"/>
<path d="M845.582 826.762L845.138 827.436L845.466 828.172L844.793 827.728L844.057 828.056L844.5 827.383L844.172 826.647L844.845 827.091L845.582 826.762Z" fill="white"/>
<path d="M467.582 914.762L467.138 915.436L467.466 916.172L466.793 915.728L466.057 916.056L466.5 915.383L466.172 914.647L466.845 915.091L467.582 914.762Z" fill="white"/>
<path d="M464.582 545.762L464.138 546.436L464.466 547.172L463.793 546.728L463.057 547.056L463.5 546.383L463.172 545.647L463.845 546.091L464.582 545.762Z" fill="white"/>
<path d="M1240.58 92.7625L1240.14 93.4356L1240.47 94.172L1239.79 93.7284L1239.06 94.0565L1239.5 93.3834L1239.17 92.647L1239.85 93.0906L1240.58 92.7625Z" fill="white"/>
<path d="M1325.58 50.7625L1325.14 51.4356L1325.47 52.172L1324.79 51.7284L1324.06 52.0565L1324.5 51.3834L1324.17 50.647L1324.85 51.0906L1325.58 50.7625Z" fill="white"/>
<path d="M1336.58 840.762L1336.14 841.436L1336.47 842.172L1335.79 841.728L1335.06 842.056L1335.5 841.383L1335.17 840.647L1335.85 841.091L1336.58 840.762Z" fill="white"/>
<path d="M1130.58 961.762L1130.14 962.436L1130.47 963.172L1129.79 962.728L1129.06 963.056L1129.5 962.383L1129.17 961.647L1129.85 962.091L1130.58 961.762Z" fill="white"/>
<path d="M995.581 530.762L995.138 531.436L995.466 532.172L994.793 531.728L994.056 532.056L994.5 531.383L994.172 530.647L994.845 531.091L995.581 530.762Z" fill="white"/>
<path d="M571.229 614.525L570.341 615.871L570.998 617.344L569.651 616.457L568.179 617.113L569.066 615.767L568.41 614.294L569.756 615.181L571.229 614.525Z" fill="white"/>
<path d="M323.753 444.525L322.866 445.871L323.523 447.344L322.176 446.457L320.704 447.113L321.591 445.767L320.935 444.294L322.281 445.181L323.753 444.525Z" fill="white"/>
<path d="M921.753 156.525L920.866 157.871L921.523 159.344L920.176 158.457L918.704 159.113L919.591 157.767L918.935 156.294L920.281 157.181L921.753 156.525Z" fill="white"/>
<path d="M688.753 30.525L687.866 31.8712L688.523 33.3439L687.176 32.4568L685.704 33.113L686.591 31.7667L685.935 30.294L687.281 31.1811L688.753 30.525Z" fill="white"/>
<path d="M470.753 33.525L469.866 34.8712L470.523 36.3439L469.176 35.4568L467.704 36.113L468.591 34.7667L467.935 33.294L469.281 34.1811L470.753 33.525Z" fill="white"/>
<path d="M1098.75 1.52497L1097.87 2.87124L1098.52 4.34395L1097.18 3.45685L1095.7 4.113L1096.59 2.76673L1095.93 1.29402L1097.28 2.18112L1098.75 1.52497Z" fill="white"/>
<path d="M896.753 617.525L895.866 618.871L896.523 620.344L895.176 619.457L893.704 620.113L894.591 618.767L893.935 617.294L895.281 618.181L896.753 617.525Z" fill="white"/>
<path d="M198.753 593.525L197.866 594.871L198.523 596.344L197.176 595.457L195.704 596.113L196.591 594.767L195.935 593.294L197.281 594.181L198.753 593.525Z" fill="white"/>
<path d="M165.753 909.525L164.866 910.871L165.523 912.344L164.176 911.457L162.704 912.113L163.591 910.767L162.935 909.294L164.281 910.181L165.753 909.525Z" fill="white"/>
<path d="M55.7535 534.525L54.8664 535.871L55.5225 537.344L54.1763 536.457L52.7036 537.113L53.5907 535.767L52.9345 534.294L54.2808 535.181L55.7535 534.525Z" fill="white"/>
<path d="M44.7535 847.525L43.8664 848.871L44.5225 850.344L43.1763 849.457L41.7036 850.113L42.5907 848.767L41.9345 847.294L43.2808 848.181L44.7535 847.525Z" fill="white"/>
<path d="M6.75349 301.525L5.86639 302.871L6.52254 304.344L5.17627 303.457L3.70356 304.113L4.59066 302.767L3.93451 301.294L5.28078 302.181L6.75349 301.525Z" fill="white"/>
</svg>
