<svg width="16" height="16" viewBox="0 0 16 16" fill="none" xmlns="http://www.w3.org/2000/svg">
<path d="M2.92478 14.1756L3.25134 13.6427L2.92478 14.1756ZM1.82431 13.0752L2.35721 12.7486L1.82431 13.0752ZM14.1752 13.0752L13.6423 12.7486L14.1752 13.0752ZM13.0748 14.1756L12.7482 13.6427L13.0748 14.1756ZM13.0748 3.8247L12.7482 4.3576L13.0748 3.8247ZM14.1752 4.92517L13.6423 5.25173L14.1752 4.92517ZM2.92478 3.8247L3.25134 4.3576L2.92478 3.8247ZM1.82431 4.92517L2.35721 5.25173L1.82431 4.92517ZM12.3176 1.6978L12.7687 1.26515V1.26515L12.3176 1.6978ZM2.56259 1.92736L2.93996 2.42557V2.42557L2.56259 1.92736ZM1.90274 2.61527L2.4155 2.97262L1.90274 2.61527ZM12.6664 3.42038H13.2914L13.2914 3.41729L12.6664 3.42038ZM12.2422 9.20093C12.5874 9.20093 12.8672 8.92111 12.8672 8.57593C12.8672 8.23075 12.5874 7.95093 12.2422 7.95093V9.20093ZM10.424 7.95093C10.0788 7.95093 9.79902 8.23075 9.79902 8.57593C9.79902 8.92111 10.0788 9.20093 10.424 9.20093V7.95093ZM6.99977 3.9585H8.99977V2.7085H6.99977V3.9585ZM8.99977 14.0418H6.99977V15.2918H8.99977V14.0418ZM6.99977 14.0418C5.89653 14.0418 5.11298 14.0412 4.50366 13.9832C3.90365 13.9262 3.53742 13.818 3.25134 13.6427L2.59822 14.7085C3.11371 15.0244 3.69383 15.1619 4.38535 15.2276C5.06756 15.2925 5.92073 15.2918 6.99977 15.2918V14.0418ZM0.708108 9.00016C0.708108 10.0792 0.707449 10.9324 0.772314 11.6146C0.838064 12.3061 0.975516 12.8862 1.29141 13.4017L2.35721 12.7486C2.1819 12.4625 2.07375 12.0963 2.0167 11.4963C1.95877 10.887 1.95811 10.1034 1.95811 9.00016H0.708108ZM3.25134 13.6427C2.88692 13.4194 2.58053 13.113 2.35721 12.7486L1.29141 13.4017C1.61779 13.9343 2.0656 14.3821 2.59822 14.7085L3.25134 13.6427ZM8.99977 15.2918C10.0788 15.2918 10.932 15.2925 11.6142 15.2276C12.3057 15.1619 12.8858 15.0244 13.4013 14.7085L12.7482 13.6427C12.4621 13.818 12.0959 13.9262 11.4959 13.9832C10.8866 14.0412 10.103 14.0418 8.99977 14.0418V15.2918ZM13.6423 12.7486C13.419 13.113 13.1126 13.4194 12.7482 13.6427L13.4013 14.7085C13.9339 14.3821 14.3818 13.9343 14.7081 13.4017L13.6423 12.7486ZM12.7482 4.3576C13.1126 4.58091 13.419 4.88731 13.6423 5.25173L14.7081 4.59861C14.3818 4.06599 13.9339 3.61818 13.4013 3.2918L12.7482 4.3576ZM6.99977 2.7085C5.92073 2.7085 5.06756 2.70784 4.38535 2.7727C3.69383 2.83845 3.11371 2.9759 2.59822 3.2918L3.25134 4.3576C3.53742 4.18229 3.90365 4.07414 4.50366 4.01709C5.11298 3.95916 5.89653 3.9585 6.99977 3.9585V2.7085ZM1.95811 9.00016C1.95811 7.89692 1.95877 7.11337 2.0167 6.50405C2.07375 5.90403 2.1819 5.5378 2.35721 5.25173L1.29141 4.59861C0.975516 5.11409 0.838064 5.69422 0.772314 6.38574C0.707449 7.06795 0.708108 7.92112 0.708108 9.00016H1.95811ZM2.59822 3.2918C2.0656 3.61818 1.61779 4.06599 1.29141 4.59861L2.35721 5.25173C2.58053 4.88731 2.88692 4.58091 3.25134 4.3576L2.59822 3.2918ZM6.70182 1.9585H10.281V0.708496H6.70182V1.9585ZM10.281 1.9585C10.8618 1.9585 11.2319 1.95994 11.5033 1.99798C11.754 2.03312 11.8261 2.08828 11.8666 2.13044L12.7687 1.26515C12.4597 0.94301 12.0759 0.81602 11.6768 0.760084C11.2985 0.707056 10.825 0.708496 10.281 0.708496V1.9585ZM6.70182 0.708496C5.59792 0.708496 4.71768 0.707565 4.01727 0.786678C3.30355 0.867293 2.70247 1.03735 2.18522 1.42914L2.93996 2.42557C3.20673 2.2235 3.55687 2.09663 4.15756 2.02878C4.77156 1.95943 5.56892 1.9585 6.70182 1.9585V0.708496ZM1.95811 6.93058C1.95811 5.75124 1.9589 4.91491 2.02596 4.26957C2.09197 3.63445 2.21648 3.2582 2.4155 2.97262L1.38997 2.25793C1.01936 2.78973 0.859065 3.40515 0.78266 4.14036C0.707318 4.86534 0.708108 5.77797 0.708108 6.93058H1.95811ZM2.18522 1.42914C1.87909 1.66102 1.61091 1.94089 1.38997 2.25793L2.4155 2.97262C2.5625 2.7617 2.73967 2.57728 2.93996 2.42557L2.18522 1.42914ZM13.2914 3.41729C13.2892 2.96723 13.2798 2.56624 13.2212 2.23034C13.1599 1.87855 13.0364 1.54427 12.7687 1.26515L11.8666 2.13044C11.906 2.17152 11.9546 2.24322 11.9898 2.445C12.0278 2.66268 12.0392 2.96288 12.0414 3.42347L13.2914 3.41729ZM0.708108 6.93058C0.708108 7.57664 0.694658 8.17762 0.708325 8.6837L1.95787 8.64996C1.94475 8.16429 1.95811 7.62058 1.95811 6.93058H0.708108ZM14.3331 9.76911H10.424V11.0191H14.3331V9.76911ZM7.98084 8.57593C7.98084 9.92526 9.07468 11.0191 10.424 11.0191V9.76911C9.76504 9.76911 9.23084 9.23491 9.23084 8.57593H7.98084ZM9.23084 8.57593C9.23084 7.91695 9.76504 7.38275 10.424 7.38275V6.13275C9.07469 6.13275 7.98084 7.2266 7.98084 8.57593H9.23084ZM12.2422 7.95093H10.424V9.20093H12.2422V7.95093ZM8.99977 3.9585C9.92429 3.9585 10.6267 3.95876 11.1944 3.99379C11.7614 4.02878 12.1467 4.09653 12.4445 4.20965L12.8883 3.04109C12.4177 2.86234 11.8869 2.78415 11.2714 2.74617C10.6566 2.70823 9.90993 2.7085 8.99977 2.7085V3.9585ZM12.4445 4.20965C12.5557 4.25186 12.6555 4.30076 12.7482 4.3576L13.4013 3.2918C13.2387 3.19215 13.0684 3.10948 12.8883 3.04109L12.4445 4.20965ZM12.0414 3.42038V3.62537H13.2914V3.42038H12.0414ZM10.424 7.38275H14.6294V6.13275H10.424V7.38275ZM15.2914 9.00016C15.2914 8.08532 15.2917 7.33561 15.2532 6.71876L14.0056 6.79674C14.0412 7.36581 14.0414 8.07073 14.0414 9.00016H15.2914ZM15.2532 6.71876C15.2005 5.87564 15.0722 5.19277 14.7081 4.59861L13.6423 5.25173C13.8455 5.58328 13.957 6.01924 14.0056 6.79674L15.2532 6.71876ZM14.0414 9.00016C14.0414 9.52547 14.0414 9.98081 14.0347 10.3837L15.2846 10.4045C15.2915 9.98907 15.2914 9.5225 15.2914 9.00016H14.0414ZM14.0347 10.3837C14.013 11.692 13.9154 12.3029 13.6423 12.7486L14.7081 13.4017C15.1816 12.629 15.2633 11.6872 15.2846 10.4045L14.0347 10.3837ZM14.3331 11.0191H14.6596V9.76911H14.3331V11.0191Z" fill="#E4EEFE"/>
</svg>
